<?xml version="1.0" encoding="UTF-8" standalone="no"?>
<svg width="396px" height="390px" viewBox="0 0 396 390" version="1.1" xmlns="http://www.w3.org/2000/svg" xmlns:xlink="http://www.w3.org/1999/xlink" xmlns:sketch="http://www.bohemiancoding.com/sketch/ns">
    <!-- Generator: Sketch 3.3.3 (12081) - http://www.bohemiancoding.com/sketch -->
    <title>Desktop Copy 3</title>
    <desc>Created with Sketch.</desc>
    <defs></defs>
    <g id="Page-1" stroke="none" stroke-width="1" fill="none" fill-rule="evenodd" sketch:type="MSPage">
        <g id="Desktop-Copy-3" sketch:type="MSArtboardGroup" fill="#FF8D6C">
            <g id="chicken" sketch:type="MSLayerGroup">
                <path d="M371.214,76.172 C376.444,72.809 382.335,68.978 389.36,68.978 C391.311,68.978 393.239,69.272 395.167,69.876 C393.9,63.757 388.67,59.175 383.578,54.717 C379.224,50.898 375.104,47.307 373.273,42.764 L373.081,42.272 L373.087,42.272 C373.087,42.272 390.026,24.441 380.954,9.111 C371.88,-6.216 368.001,1.77 366.704,9.111 C365.413,16.455 351.248,-3.55 349.002,8.465 C346.75,20.481 323.302,11.434 329.355,25.603 C329.355,25.603 330.76,29.088 334.609,32.28 C312.494,35.694 300.148,45.41 288.005,65.024 C284.618,70.495 279.467,83.15 275.84,92.436 C258.558,136.547 245.125,141.675 221.887,141.675 C211.157,141.675 200.413,138.736 189.929,134.154 C185.035,131.319 147.397,108.883 137.564,84.539 C127.05,58.487 80.458,9.38 32.363,30.926 C-15.736,52.474 -6.518,68.726 46.387,83.537 C96.488,97.564 -2.207,99.068 33.366,131.137 C68.935,163.197 30.351,162.199 78.456,199.781 C122.942,234.531 105.487,251.843 127.905,267.071 C127.887,267.1 127.866,267.131 127.848,267.167 C128.274,267.443 128.776,267.659 129.22,267.936 C130.709,268.878 132.343,269.822 134.177,270.747 C134.177,270.747 134.294,270.759 134.318,270.759 C140.608,273.726 147.861,275.887 155.371,278.061 C163.309,280.379 179.538,284.985 179.538,284.985 C200.284,287.225 230.834,262.701 242.789,244.795 C261.267,215.937 247.665,192.77 237.643,161.914 L242.266,160.446 C251.808,190.248 266.964,216.05 246.848,247.449 C235.109,265.073 207.649,287.634 185.569,289.795 C186.293,290.239 195.273,296.01 203.148,300.292 C210.615,304.351 216.061,311.37 218.139,319.615 C219.844,326.4 222.114,333.017 225.128,339.238 C226.743,342.577 226.798,346.462 225.254,349.831 C223.717,353.206 220.763,355.739 217.178,356.7 C210.831,358.418 204.184,360.826 199.053,365.3 C197.473,366.698 196.666,368.759 196.894,370.848 C197.128,372.938 198.36,374.787 200.203,375.796 C202.972,377.303 206.376,377.015 208.85,375.052 C215.311,369.911 227.23,369.431 237.414,365.504 C241.041,364.11 245.143,364.567 248.367,366.723 C249.519,367.492 250.726,368.224 252.107,368.939 C257.391,371.666 261.865,375.556 265.318,380.396 C266.291,381.753 267.101,383.062 267.714,384.299 C269.216,387.337 272.242,389.343 275.629,389.553 L279.97,389.805 C280.733,389.853 281.471,389.566 282,389.013 C282.522,388.454 282.78,387.703 282.696,386.947 C282.437,384.479 281.687,381.994 280.606,379.568 C280.222,378.703 280.306,377.718 280.816,376.931 C281.327,376.144 282.204,375.676 283.146,375.676 C299.275,375.706 310.204,379.652 315.848,382.39 C318.832,383.843 322.381,383.531 325.06,381.591 L326.128,380.81 C327.533,379.801 328.338,378.162 328.296,376.433 C328.26,374.704 327.365,373.106 325.918,372.163 C310.978,362.423 285.613,361.673 273.189,358.418 C253.055,353.062 243.003,328.466 244.252,312.451 C244.264,312.464 244.27,312.464 244.281,312.464 L244.275,312.373 L246.725,312.235 C262.955,311.346 273.056,296.713 282.381,282.264 C298.834,256.774 306.677,256.48 306.677,256.48 C349.413,252.109 373.407,216.614 379.989,148.003 C381.94,127.755 375.954,115.728 369.606,102.982 C366.676,97.073 363.626,90.973 361.223,83.83 L360.424,81.443 L362.826,80.716 C365.39,79.958 368.229,78.114 371.214,76.172 L371.214,76.172 Z M346.384,56.434 C343.075,56.434 340.404,53.747 340.404,50.451 C340.404,47.148 343.088,44.473 346.384,44.473 C349.675,44.473 352.353,47.154 352.353,50.451 C352.353,53.748 349.687,56.434 346.384,56.434 L346.384,56.434 Z" id="Shape" sketch:type="MSShapeGroup"></path>
            </g>
        </g>
    </g>
</svg>