<?xml version="1.0" encoding="UTF-8" standalone="no"?>
<svg width="476px" height="324px" viewBox="0 0 476 324" version="1.1" xmlns="http://www.w3.org/2000/svg" xmlns:xlink="http://www.w3.org/1999/xlink" xmlns:sketch="http://www.bohemiancoding.com/sketch/ns">
    <!-- Generator: Sketch 3.3.3 (12081) - http://www.bohemiancoding.com/sketch -->
    <title>Desktop</title>
    <desc>Created with Sketch.</desc>
    <defs></defs>
    <g id="Page-1" stroke="none" stroke-width="1" fill="none" fill-rule="evenodd" sketch:type="MSPage">
        <g id="Desktop" sketch:type="MSArtboardGroup" fill="#000000">
            <g id="cow-silhouette" sketch:type="MSLayerGroup">
                <path d="M473.006,79.496 L421.754,26.028 L444.061,11.801 L445.363,0.713 L435.016,0.096 L408.182,19.397 L374.697,19.426 L354.199,6.91 L346.857,8.409 L346.965,16.546 L360.178,31.18 L358.436,38.867 L202.938,55.59 L41.869,51.092 L24.512,58.368 L11.727,74.614 L5.149,112.614 L3.987,139.93 L0,165.437 L1.096,190.842 L5.58,191.759 L12.098,184.583 L17.397,160.746 L13.102,127.678 L14.596,127.453 L24.692,177.795 L17.815,221.485 L24.094,308.681 L24.692,318.337 L30.811,323.557 L57.866,323.599 L66.584,320.962 L42.379,281.545 L54.387,231.489 L60.676,231.5 L82.619,298.053 L93.93,315.139 L99.51,318.574 L129.375,318.596 L133.207,313.801 L107.354,297.92 L89.825,243.936 L94.219,235.172 L104.516,236.128 L110.981,251.958 L120.346,236.528 L129.42,252.024 L137.106,235.198 L159.729,217.808 L240.008,210.12 L253.482,226.593 L264.838,307.123 L270.812,318.694 L298.166,318.683 L301.115,314.347 L284.489,291.206 L282.491,247.141 L291.469,252.124 L300.926,281.395 L312.953,319.403 L318.346,323.584 L342.82,323.599 L344.852,318.072 L337.697,311.45 L314.619,266.349 L319.939,219.083 L345.799,199.954 L383.469,129.985 L426.826,109.969 L466.697,105.43 L470.115,101.724 L475.695,85.998 L473.006,79.496 Z" id="Shape" sketch:type="MSShapeGroup"></path>
            </g>
        </g>
    </g>
</svg>