<?xml version="1.0" encoding="UTF-8" standalone="no"?>
<svg width="559px" height="465px" viewBox="0 0 559 465" version="1.1" xmlns="http://www.w3.org/2000/svg" xmlns:xlink="http://www.w3.org/1999/xlink" xmlns:sketch="http://www.bohemiancoding.com/sketch/ns">
    <!-- Generator: Sketch 3.3.3 (12081) - http://www.bohemiancoding.com/sketch -->
    <title>Desktop Copy 5</title>
    <desc>Created with Sketch.</desc>
    <defs></defs>
    <g id="Page-1" stroke="none" stroke-width="1" fill="none" fill-rule="evenodd" sketch:type="MSPage">
        <g id="Desktop-Copy-5" sketch:type="MSArtboardGroup" fill="#FF8D6C">
            <g id="lamb" sketch:type="MSLayerGroup">
                <path d="M547.699,86.539 C542.228,77.314 534.387,70.549 526.189,64.07 C522.962,61.52 518.894,59.888 516.087,56.987 C511.019,51.757 505.034,48.236 498.612,45.106 C496.583,44.119 494.809,42.377 493.278,40.659 C490.508,37.546 488.223,33.989 485.346,30.981 C477.17,22.438 467.26,16.432 456.563,11.491 C450.329,8.611 443.004,7.428 438.602,0.826 C437.338,9.206 445.53,10.997 448.924,16.575 C447.692,16.84 446.754,17.281 445.865,17.195 C440.07,16.656 434.297,15.869 428.496,15.437 C423.154,15.037 417.754,15.286 412.449,14.662 C408.732,14.225 405.133,12.797 401.033,11.696 C401.498,12.259 401.752,12.59 402.025,12.891 C402.31,13.205 402.587,13.536 402.918,13.789 C411.939,20.721 422.254,24.593 433.404,26.131 C443.656,27.543 452.633,31.064 459.14,39.542 C460.792,41.696 460.343,43.41 457.663,43.957 C451.542,45.197 446.671,47.976 443.872,53.9 C443.19,55.34 441.702,56.511 440.36,57.506 C435.516,61.097 430.444,64.385 425.712,68.106 C418.993,73.394 412.239,78.686 405.989,84.5 C400.62,89.498 396.116,95.418 390.909,100.608 C380.542,110.942 367.706,116.116 353.247,116.091 C342.831,116.07 332.382,114.818 322.018,113.566 C315.641,112.795 309.961,114.06 304.364,116.805 C299.407,119.237 294.503,121.844 289.346,123.765 C285.608,125.161 281.455,125.397 277.571,126.446 C271.145,128.18 264.637,127.641 258.342,126.54 C252.194,125.463 246.314,122.946 240.256,121.269 C235.185,119.865 230.027,118.764 224.911,117.532 C221.402,116.683 217.926,115.638 214.376,115.035 C208.941,114.113 203.409,113.713 197.999,112.673 C193.858,111.877 189.9,109.797 185.759,109.421 C176.461,108.576 167.097,108.438 157.758,108.009 C156.705,107.96 155.644,107.997 154.604,107.866 C146.893,106.874 139.189,105.83 131.479,104.846 C125.958,104.14 121.826,106.984 118.011,110.387 C114.474,113.541 111.161,116.948 107.595,120.069 C104.551,122.737 100.879,124.785 98.211,127.76 C91.308,135.45 85.473,144.125 77.187,150.534 C71.805,154.7 66.526,159.033 60.908,162.856 C56.701,165.72 52.209,168.001 48.929,172.17 C43.756,178.739 40.859,186.393 37.55,193.892 C33.458,203.174 30.124,213.08 19.549,217.315 C20.793,218.755 21.507,219.845 19.459,221.065 C14.069,224.276 8.753,227.434 2.307,223.615 C1.726,223.272 0.767,223.57 0,223.57 C2.138,225.59 3.937,228.094 6.377,229.376 C8.849,230.673 10.673,231.502 9.058,234.403 C10.278,234.938 11.31,235.389 12.02,235.7 C10.976,237.891 10.143,239.641 8.984,242.073 C18.021,238.903 19.351,239.218 20.979,244.575 C23.627,243.684 26.969,240.796 27.936,247.206 C30.87,244.575 33.163,242.335 35.68,240.38 C36.333,239.874 38.479,239.968 38.593,240.282 C39.919,243.901 41.392,242.261 42.979,240.581 C43.46,240.069 44.056,239.671 44.811,239.042 C46.357,241.718 47.948,241.624 49.837,239.552 C51.236,238.019 52.913,236.726 54.529,235.404 C55.137,234.906 56.153,234.119 56.59,234.322 C60.584,236.158 62.302,232.343 63.232,230.532 C64.595,227.88 66.517,227.415 68.895,226.444 C69.27,227.403 69.789,228.207 69.891,229.059 C70.788,236.709 72.106,244.355 72.355,252.029 C72.763,264.779 72.926,277.562 69.34,290.068 C66.048,301.545 60.776,311.433 49.789,317.349 C48.924,317.816 47.981,318.917 47.847,319.835 C47.048,325.294 46.301,330.773 45.872,336.273 C45.097,346.187 44.554,356.119 43.93,366.044 C43.305,376.021 42.278,385.913 38.593,395.339 C38.275,396.155 38.516,397.325 38.814,398.224 C40.503,403.294 42.743,408.232 43.906,413.413 C44.971,418.145 47.195,422.829 45.905,427.966 C45.754,428.575 46.497,429.9 47.105,430.12 C52.703,432.143 55.84,436.538 58.749,441.36 C59.745,443.012 61.475,444.518 63.225,445.346 C66.093,446.709 69.186,447.942 72.303,448.377 C80.161,449.488 88.256,451.328 95.808,444.727 C90.582,439.811 85.572,434.991 80.431,430.311 C77.457,427.602 73.993,425.379 71.243,422.475 C66.535,417.504 64.719,410.981 63.189,404.551 C62.182,400.321 61.851,395.863 61.79,391.498 C61.741,387.859 62.435,384.195 62.974,380.568 C63.937,374.113 64.932,367.662 66.095,361.246 C67.482,353.596 71.501,347.01 74.985,340.225 C75.36,339.498 76.144,338.362 76.585,338.426 C77.368,338.545 78.384,339.291 78.698,340.03 C80.51,344.29 82.586,348.509 83.757,352.956 C86.809,364.563 88.229,376.468 88.902,388.431 C89.371,396.73 89.285,405.058 89.681,413.361 C89.738,414.613 90.824,416.078 91.843,416.976 C94.646,419.453 98.012,421.357 100.526,424.074 C104.724,428.607 106.425,434.25 106.124,440.48 C106.079,441.427 106.312,442.765 106.94,443.3 C110.8,446.568 112.864,450.814 114.411,455.499 C115.21,457.931 115.7,460.903 118.846,461.644 C122.522,462.503 125.913,464.511 129.976,463.919 C132.669,463.528 135.529,463.466 138.197,463.931 C142.755,464.724 145.867,462.271 149.071,460.243 C145.13,454.987 141.282,449.925 137.504,444.804 C133.991,440.048 130.368,435.351 127.149,430.398 C125.427,427.755 124.733,424.459 123.081,421.761 C118.434,414.185 112.84,407.159 111.975,397.755 C111.445,391.985 110.09,386.294 109.29,380.54 C108.67,376.097 108.482,371.589 107.85,367.149 C106.757,359.475 107.063,351.862 109.405,344.522 C110.91,339.809 113.922,336.182 119.499,335.44 C121.441,335.182 123.444,334.065 125.048,332.848 C128.79,330.008 132.474,327.047 135.872,323.811 C139.993,319.887 143.8,315.627 147.737,311.51 C149.047,310.143 150.364,309.332 152.307,310.584 C161.646,316.594 172.16,318.932 183.001,319.76 C194.865,320.67 206.718,319.475 218.313,317.145 C228.917,315.01 239.46,312.237 249.717,308.801 C265.087,303.653 280.15,297.606 295.398,292.09 C303.937,289 312.419,285.459 321.232,283.477 C331.4,281.192 329.711,279.985 331.806,288.202 C331.861,288.405 331.876,288.618 331.892,288.831 C332.746,300.091 333.822,311.343 334.378,322.62 C334.899,333.136 334.929,343.677 335.042,354.208 C335.075,357.337 334.606,360.468 334.454,363.604 C334.005,373.049 333.495,382.495 333.218,391.948 C332.904,402.51 330.868,412.776 327.943,422.858 C326.621,427.419 329.33,430.161 331.175,433.805 C332.72,432.063 333.855,429.961 335.708,432.711 C335.817,432.877 336.192,433.061 336.315,432.996 C340.073,430.973 340.374,434.525 341.385,436.353 C344.918,442.751 347.844,449.515 351.797,455.626 C353.565,458.36 357.094,461.388 360.039,461.628 C366.521,462.163 373.144,461.028 379.705,460.515 C380.256,460.47 380.769,459.968 381.658,459.484 C380.088,457.427 378.498,455.543 377.154,453.494 C376.66,452.744 376.742,451.613 376.562,450.658 C377.435,450.638 378.501,450.275 379.15,450.646 C384.384,453.636 389.912,452.779 395.31,451.73 C398.296,451.152 401.08,449.519 404.16,448.279 C396.996,441.478 392.488,433.123 387.719,424.967 C383.842,418.344 383.703,410.838 383.356,403.514 C382.737,390.389 383.985,377.35 385.78,364.342 C386.915,356.117 388.221,347.94 391.493,340.278 C393.802,334.882 392.651,329.637 391.46,324.391 C390.411,319.78 388.722,315.313 387.671,310.702 C385.263,300.151 385.65,289.768 390.302,279.802 C390.906,278.507 391.542,276.872 392.652,276.228 C398.707,272.691 403.423,267.892 406.593,261.707 C407.882,259.189 409.005,256.326 409.159,253.559 C409.38,249.68 410.53,246.465 412.962,243.543 C416.128,239.736 417.706,235.42 417.597,230.361 C417.417,222.225 417.349,214.077 417.617,205.946 C417.806,200.238 418.455,194.281 422.142,189.736 C426.263,184.657 428.38,178.867 430.49,172.89 C435.371,159.055 440.295,145.232 445.57,131.543 C447.9,125.501 451.193,119.809 456.488,115.737 C460.785,112.432 464.224,112.64 467.263,116.997 C473.917,126.54 482.359,133.211 493.995,134.868 C499.739,135.688 505.681,135.806 511.474,135.407 C515.742,135.109 516.273,133.016 513.828,129.267 C513.375,128.569 512.564,128.096 512.168,127.382 C511.52,126.211 511.07,124.922 510.5,123.592 C512.188,123.245 513.295,122.919 514.42,122.8 C519.508,122.274 524.588,121.556 529.688,121.388 C534.622,121.225 537.627,124.342 536.721,128.3 C536.364,129.867 535.274,131.266 534.543,132.756 C534.363,133.123 534.074,133.776 534.205,133.902 C535.84,135.452 534.498,136.35 533.625,137.545 C532.107,139.622 530.805,141.858 529.018,144.64 C533.188,143.942 533.764,144.599 533.202,147.553 C532.255,152.514 531.442,157.496 530.411,163.375 C533.046,161.192 534.716,161.784 535.298,163.579 C535.87,165.346 535.736,167.414 535.568,169.32 C535.406,171.209 534.095,173.278 534.578,174.873 C535.316,177.317 537.168,179.422 538.547,181.67 C538.809,181.568 539.07,181.47 539.33,181.368 C538.935,179.499 537.209,177.1 541.219,176.949 C540.571,176.003 539.836,175.309 539.584,174.472 C539.188,173.154 538.438,171.147 539.025,170.461 C541.502,167.589 540.64,164.635 540.064,161.55 C539.705,159.633 539.697,157.752 542.117,156.936 C542.555,156.789 543.117,156.067 543.088,155.646 C542.945,153.459 543.387,151.591 544.945,149.91 C545.437,149.38 545.17,148.192 545.381,147.34 C545.756,145.83 545.904,144.121 546.744,142.909 C547.662,141.583 549.258,140.726 550.599,139.629 C546.136,135.843 545.294,131.906 546.568,125.863 C547.523,121.326 550.261,118.817 554.439,117.568 C557.785,116.568 558.628,115.055 558.029,111.717 C557.511,108.828 556.336,105.981 558.25,102.937 C559.662,100.697 558.67,98.469 556.773,96.544 C553.578,93.356 549.955,90.337 547.699,86.539 L547.699,86.539 Z" id="Shape" sketch:type="MSShapeGroup"></path>
            </g>
        </g>
    </g>
</svg>